PathFileType	4	(X/Y/Z)	C:/Users/beibeiliu/ov580/test_trc/User1\sequence.27_training_dense_right.trc
DataRate	CameraRate	NumFrames	NumMarkers	Units	OrigDataRate	OrigDataStartFrame	OrigNumFrames
120	120	14	19	mm	120	29	112
Frame#	Time	ThumbCMC			ThumbMCP			ThumbIP			ThumbTip			IndexMCP			IndexPIP			IndexTip			MiddleMCP			MiddlePIP			MiddleTip			RingMCP			RingPIP			RingTip			PinkyMCP			PinkyPIP			PinkyTip			BackHand1			BackHand2			BackHand3	
		X0	Y0	Z0	X1	Y1	Z1	X2	Y2	Z2	X3	Y3	Z3	X4	Y4	Z4	X5	Y5	Z5	X6	Y6	Z6	X7	Y7	Z7	X8	Y8	Z8	X9	Y9	Z9	X10	Y10	Z10	X11	Y11	Z11	X12	Y12	Z12	X13	Y13	Z13	X14	Y14	Z14	X15	Y15	Z15	X16	Y16	Z16	X17	Y17	Z17	X18	Y18	Z18	
28	0.233333	107.194	3.3318	109.429	89.9572	-16.1315	88.3849	75.9521	-24.2754	68.0348	58.8917	-37.0481	50.1847	104.483	22.4312	25.961	92.1092	16.3043	-3.35319	92.7912	-0.860079	-26.4255	127.446	22.15	13.527	121.446	9.74904	-18.3957	114.506	-12.338	-41.1468	154.189	15.0634	12.5813	150.017	6.10206	-19.4126	139.398	-13.8221	-39.1277	180.357	2.07689	25.1499	182.158	-0.103275	9.12915	186.199	-1.35384	-18.59	164.943	24.0516	67.0022	175.039	27.6945	103.231	136.684	30.579	93.6591	
29	0.241667	108.986	5.35254	105.785	90.7835	-14.2502	86.8741	72.1356	-24.3708	69.0241	59.4909	-36.1599	46.6817	101.974	22.2984	22.2475	94.8923	16.2251	-3.97961	91.2415	-1.73776	-27.6928	131.916	21.631	12.1664	120.986	11.1277	-18.4961	114.389	-14.1639	-43.5564	151.896	17.1161	10.2574	149.585	7.21276	-17.7472	142.883	-11.0057	-35.9411	180.513	2.36046	27.5058	183.739	-0.995109	3.6961	188.22	-1.75758	-15.6227	163.972	26.8928	67.8451	175.142	28.0635	104.162	134.124	30.4678	93.8759	
30	0.25	111.206	3.42603	105.998	86.2395	-15.3454	86.8961	71.1811	-24.143	67.2434	59.99	-35.1387	46.6049	104.973	22.7318	26.1391	95.9053	17.0715	-1.59399	89.9934	-0.182942	-25.4003	128.844	22.5493	12.2507	119.528	12.6962	-17.3547	116.051	-12.7953	-40.7221	156.479	16.4432	12.8113	151.325	8.64646	-15.7531	145.733	-12.1482	-36.3571	179.637	2.01733	29.336	185.109	-0.917962	7.28372	186.149	-1.26267	-17.6664	167.194	25.0301	66.1183	173.727	27.866	104.126	137.912	30.6913	89.8381	
31	0.258333	107.437	3.32699	108.909	86.3759	-15.8317	89.2315	75.1216	-23.6123	68.1836	63.699	-35.3302	51.0581	98.9816	22.5445	23.7056	96.3487	15.7091	-6.18209	89.5551	-2.89121	-29.9032	131.131	21.5314	10.3933	118.016	10.056	-19.1293	111.927	-14.4213	-43.3502	152.139	16.9403	14.6944	147.361	8.9027	-15.0505	140.843	-10.1262	-35.2291	181.553	1.70544	25.8905	181.851	-1.03	8.32633	185.443	1.0431	-19.6925	168.289	23.1622	69.4108	175.636	28.3502	98.4772	135.995	30.5677	90.9914	
32	0.266667	111.179	3.61592	106.84	86.53	-15.556	85.6534	71.6384	-23.8613	68.8912	58.8524	-35.7159	48.1558	103.152	22.1068	20.3542	94.1954	16.8544	-3.64702	92.7004	-3.32789	-30.3728	127.697	21.5581	11.7939	122.459	10.2216	-20.0617	113.057	-11.323	-40.6829	154.839	16.0097	10.4416	149.872	7.15319	-15.5066	141.627	-14.0784	-39.3057	183.651	1.4881	25.2652	181.357	-2.12181	3.20965	184.956	-1.77135	-19.4625	163.387	23.3174	68.0451	175.171	26.0882	98.1857	138.483	30.0424	91.9186	
33	0.275	107.878	3.66477	109.33	88.7828	-16.0429	89.7003	72.2118	-23.9397	63.5564	60.7867	-36.6204	49.108	103.77	21.9526	23.3518	95.9829	16.3024	-2.13969	88.3898	-1.48406	-27.27	128.345	21.6384	10.4604	122.917	9.56978	-19.8123	112.693	-15.5757	-42.7239	155.498	16.0127	13.8828	145.661	7.18333	-16.8153	144.206	-14.1468	-38.3539	182.14	1.88221	26.7123	187.835	-1.96449	7.93151	184.095	-1.06084	-20.5126	165.14	24.0691	66.8982	173.294	28.347	103.869	135.909	31.658	89.3143	
34	0.283333	108.544	3.55107	106.369	88.2028	-14.9841	85.8026	75.1255	-23.607	66.9172	60.8039	-35.8167	49.0403	100.338	23.1035	22.5691	94.3463	16.9068	-1.8106	88.0632	-3.40318	-28.2414	127.709	21.7883	9.56736	119.831	10.8906	-17.1322	113.589	-13.8354	-42.3068	153.095	15.625	10.8684	148.662	7.14611	-17.1463	142.626	-12.2572	-36.074	180.88	1.11046	26.3833	184.697	-1.62142	5.6931	188.351	-1.25323	-16.3511	164.098	24.7036	69.8963	175.158	26.943	103.163	133.264	31.5127	89.6434	
35	0.291667	107.934	4.03118	106.073	90.9925	-14.932	88.1896	70.4752	-22.6876	63.5292	61.0799	-35.6558	45.2294	103.672	23.2045	21.3174	94.543	16.4657	-4.92875	89.4581	0.183967	-25.0718	130.758	22.5977	9.41489	121.395	10.6746	-19.0794	114.577	-11.6155	-40.3091	152.88	15.6843	12.8884	147.753	7.1957	-15.9213	142.793	-14.3164	-38.8937	177.928	2.25636	26.2576	184.228	-0.83118	7.55383	184.841	-0.44693	-17.0694	162.163	25.0701	67.9996	172.325	26.1486	101.687	135.323	32.7213	90.4462	
36	0.3	112.282	4.08149	109.086	87.2405	-14.5355	89.2474	76.2692	-23.3709	64.0523	62.6502	-35.8929	49.1146	101.848	23.9937	26.7576	96.4146	15.804	-7.17462	93.8902	0.772256	-26.3414	130.451	22.1539	6.61038	123.511	10.7847	-20.0618	116.195	-15.6691	-43.1276	155.175	16.8332	13.5331	151.623	6.99991	-16.7714	140.432	-11.7112	-35.5665	180.998	1.26498	27.5851	184.938	-2.47936	4.47229	188.057	0.224136	-15.96	169.055	25.7155	69.2578	175.056	26.6632	99.7048	138.592	32.7967	90.7783	
37	0.308333	110.282	5.10726	106.86	86.1946	-14.8326	86.9928	75.96	-21.7794	63.6631	60.7129	-34.1142	44.7145	104.584	23.935	25.3008	93.4335	17.1473	-4.77085	89.5085	1.16572	-26.6417	129.533	23.0901	11.581	121.527	11.4503	-18.0664	113.599	-11.4809	-41.3246	155.685	15.7034	9.93558	147.358	6.11692	-18.8778	141.33	-12.3323	-36.7987	182.736	1.43364	23.9387	187.575	-1.98288	5.64804	186.637	-0.8964	-21.4223	166.99	26.2505	68.5451	172.323	26.6227	99.6217	134.351	31.7109	92.9086	
38	0.316667	110.772	6.21213	107.004	88.9498	-13.1119	84.7124	75.0541	-21.2822	66.4365	61.6437	-33.5024	47.1864	106.558	25.5176	25.2878	97.2632	19.2341	-4.71138	94.359	2.74839	-28.4558	131.558	24.7669	7.69629	125.006	12.7025	-20.0571	114.057	-11.8799	-43.8335	154.319	17.6239	10.1078	149.85	8.16942	-18.5625	141.543	-9.26544	-36.3674	182.645	2.6172	27.0083	183.668	0.132366	6.19171	185.019	1.37269	-19.0138	165.441	25.0351	68.215	174.242	29.7457	102.647	139.888	32.5427	91.0137	
39	0.325	110.517	6.91575	110.83	88.9491	-12.2001	85.9323	73.0542	-19.8316	65.619	63.4137	-31.818	46.5378	107.092	27.4924	26.9807	95.3015	21.049	-4.39769	93.131	5.97667	-24.9014	132.227	25.6015	12.2393	121.945	14.448	-19.0974	119.037	-9.42798	-42.9539	156.258	18.8295	12.4314	149.583	10.7991	-16.7667	144.968	-10.5917	-38.3028	182.192	4.74015	28.2389	188.678	0.378531	7.36019	187.149	0.739478	-20.689	170.169	27.2043	69.3863	179.481	27.9595	99.8083	140.675	33.9782	88.6732	
40	0.333333	109.729	7.66604	108.268	89.457	-11.3151	87.6987	75.0093	-20.7881	67.6504	66.6007	-30.0556	46.7464	107.386	26.8625	22.4327	100.959	21.4054	-5.11004	95.4986	4.96204	-27.4209	131.876	25.52	11.3789	124.779	14.2465	-20.3375	116.191	-10.3605	-43.9948	156.196	19.1302	13.9959	150.726	9.36578	-18.5887	145.534	-9.0698	-37.1404	186.61	3.27524	29.1028	186.199	0.803461	7.46951	192.061	2.95091	-20.1829	167.39	28.5521	71.3322	177.05	29.1433	104.639	141.933	34.8031	92.4886	
41	0.341667	112.595	7.86672	107.616	89.8171	-11.4343	85.3575	78.1146	-18.917	63.6016	67.6891	-29.7268	48.5484	105.847	28.1511	22.6645	103.136	22.8583	-1.89971	96.6345	4.78915	-30.4337	132.797	27.0526	12.5357	127.431	16.1626	-18.2564	119.944	-6.61689	-40.6599	158.813	20.4005	11.527	151.166	12.9884	-15.6679	146.987	-7.39252	-36.6566	186.33	4.54838	23.7596	188.57	2.35911	8.02765	190.033	4.26063	-17.2658	167.9	28.9171	71.068	176.954	30.1604	100.567	143.375	34.56	92.1032	
